<svg width="19" height="16" viewBox="0 0 19 16" fill="none" xmlns="http://www.w3.org/2000/svg">
<path d="M17 9.40625C16.9167 9.80208 16.6771 10 16.2812 10H7.125L7.3125 11H15.7188C15.9479 11 16.1354 11.0938 16.2812 11.2812C16.4271 11.4688 16.4792 11.6771 16.4375 11.9062L16.25 12.6875C16.9167 13 17.25 13.5208 17.25 14.25C17.25 14.7292 17.0729 15.1354 16.7188 15.4688C16.3854 15.8229 15.9792 16 15.5 16C15.0208 16 14.6042 15.8229 14.25 15.4688C13.9167 15.1354 13.75 14.7292 13.75 14.25C13.75 13.75 13.9271 13.3333 14.2812 13H7.71875C8.07292 13.3333 8.25 13.75 8.25 14.25C8.25 14.7292 8.07292 15.1354 7.71875 15.4688C7.38542 15.8229 6.97917 16 6.5 16C6.02083 16 5.60417 15.8229 5.25 15.4688C4.91667 15.1354 4.75 14.7292 4.75 14.25C4.75 13.5833 5.04167 13.0729 5.625 12.7188L3.4375 2H1.25C1.04167 2 0.864583 1.92708 0.71875 1.78125C0.572917 1.63542 0.5 1.45833 0.5 1.25V0.75C0.5 0.541667 0.572917 0.364583 0.71875 0.21875C0.864583 0.0729167 1.04167 0 1.25 0H4.46875C4.63542 0 4.78125 0.0625 4.90625 0.1875C5.05208 0.291667 5.14583 0.427083 5.1875 0.59375L5.46875 2H17.75C18 2 18.1979 2.09375 18.3438 2.28125C18.4896 2.46875 18.5312 2.67708 18.4688 2.90625L17 9.40625Z" fill="#333333"/>
</svg>
